<svg width="16" height="17" viewBox="0 0 16 17" fill="none" xmlns="http://www.w3.org/2000/svg">
<path d="M7.49318 7.69535C9.07885 7.69535 10.3643 6.40991 10.3643 4.82424C10.3643 3.23857 9.07885 1.95312 7.49318 1.95312C5.90751 1.95312 4.62207 3.23857 4.62207 4.82424C4.62207 6.40991 5.90751 7.69535 7.49318 7.69535Z" fill="#4CAF50"/>
<path d="M9.3335 12.9443H12.4446V13.5666H9.3335V12.9443Z" fill="#4CAF50"/>
<path d="M6.6669 13.8334V15.1668C6.6669 15.2846 6.71372 15.3977 6.79707 15.481C6.88042 15.5644 6.99347 15.6112 7.11134 15.6112H14.6669C14.7848 15.6112 14.8978 15.5644 14.9812 15.481C15.0645 15.3977 15.1113 15.2846 15.1113 15.1668V10.7223C15.1113 10.6045 15.0645 10.4914 14.9812 10.4081C14.8978 10.3247 14.7848 10.2779 14.6669 10.2779H11.5558V9.62455C11.5558 9.50668 11.509 9.39363 11.4256 9.31028C11.3423 9.22693 11.2292 9.1801 11.1113 9.1801C10.9935 9.1801 10.8804 9.22693 10.7971 9.31028C10.7137 9.39363 10.6669 9.50668 10.6669 9.62455V10.2779H9.77801V8.68677C9.02276 8.56342 8.25882 8.501 7.49356 8.5001C5.80592 8.49293 4.13719 8.8555 2.60468 9.56233C2.35245 9.68136 2.13966 9.87024 1.99155 10.1066C1.84345 10.3429 1.76625 10.6168 1.76912 10.8957V13.8334H6.6669ZM14.2225 14.7223H7.55579V11.1668H10.6669V11.3534C10.6669 11.4713 10.7137 11.5844 10.7971 11.6677C10.8804 11.7511 10.9935 11.7979 11.1113 11.7979C11.2292 11.7979 11.3423 11.7511 11.4256 11.6677C11.509 11.5844 11.5558 11.4713 11.5558 11.3534V11.1668H14.2225V14.7223Z" fill="#4CAF50"/>
</svg>
