<svg width="24" height="24" viewBox="0 0 24 24" fill="none" xmlns="http://www.w3.org/2000/svg">
<path d="M15.7897 15.6C14.9407 15.2602 14.6017 14.3265 14.6017 14.3265C14.6017 14.3265 14.2192 14.538 14.2192 13.944C14.2192 13.35 14.6017 14.3265 14.9842 12.033C14.9842 12.033 16.044 11.7352 15.8317 9.27298H15.5767C15.5767 9.27298 16.2142 6.64048 15.5767 5.74798C14.9392 4.85698 14.6857 4.26298 13.284 3.83773C11.8822 3.41248 12.393 3.49723 11.3737 3.54073C10.3537 3.58423 9.50474 4.13548 9.50474 4.43323C9.50474 4.43323 8.86724 4.47523 8.61374 4.73023C8.35874 4.98523 7.93424 6.17323 7.93424 6.47023C7.93424 6.76723 8.14649 8.76523 8.35874 9.18898L8.10599 9.27448C7.89299 11.7367 8.95349 12.0345 8.95349 12.0345C9.33599 14.328 9.71849 13.3515 9.71849 13.9455C9.71849 14.5395 9.33599 14.328 9.33599 14.328C9.33599 14.328 8.99699 15.2617 8.14799 15.6015C7.29899 15.9405 2.58599 17.766 2.20274 18.1485C1.81874 18.531 1.86224 20.3145 1.86224 20.3145H22.0725C22.0725 20.3145 22.1175 18.5317 21.7335 18.1485C21.351 17.766 16.6372 15.9405 15.7882 15.6015L15.7897 15.6ZM6.43724 15.471C6.36224 15.336 6.32624 15.2385 6.32624 15.2385C6.32624 15.2385 6.00224 15.4185 6.00224 14.9145C6.00224 14.4105 6.32624 15.2385 6.65024 13.2945C6.65024 13.2945 7.55024 13.0432 7.37024 10.956H7.15274C7.15274 10.956 7.26074 10.5135 7.33124 9.95548C7.32808 9.70618 7.33734 9.45687 7.35899 9.20848L7.38749 8.88898C7.37249 8.51998 7.30724 8.18398 7.15349 7.96948C6.61349 7.21423 6.39749 6.70948 5.21099 6.34948C4.02299 5.98948 4.45349 6.06148 3.59099 6.09823C2.72699 6.13573 2.00699 6.60223 2.00699 6.85573C2.00699 6.85573 1.46699 6.89098 1.25099 7.10698C1.04849 7.30948 0.722243 8.20348 0.683243 8.52073V8.73073C0.719243 9.22123 0.878243 10.5682 1.03574 10.8855L0.821243 10.9575C0.641243 13.044 1.54124 13.296 1.54124 13.296C1.86374 15.2385 2.18849 14.412 2.18849 14.916C2.18849 15.42 1.86449 15.2385 1.86449 15.2385C1.86449 15.2385 1.57724 16.032 0.857243 16.3185L0.683243 16.3875V20.313H1.11449C1.09199 19.3545 1.17224 18.1177 1.67399 17.6175C1.94174 17.3512 2.81699 16.9125 6.43874 15.471H6.43724ZM23.1847 8.67898C23.1547 8.39548 23.0895 8.14273 22.9657 7.96948C22.4272 7.21348 22.2105 6.70948 21.0232 6.34948C19.836 5.98948 20.268 6.06148 19.4032 6.09823C18.5407 6.13573 17.8207 6.60223 17.8207 6.85573C17.8207 6.85573 17.2807 6.89098 17.0647 7.10698C16.8622 7.31098 16.5322 8.21098 16.4962 8.52448H16.521L16.581 9.20998C16.596 9.38248 16.5975 9.53623 16.6012 9.69298C16.6687 10.1925 16.7587 10.7055 16.8487 10.8855L16.6342 10.9567C16.4542 13.0432 17.3542 13.2952 17.3542 13.2952C17.6782 15.2377 18.0015 14.4112 18.0015 14.9152C18.0015 15.4192 17.679 15.2377 17.679 15.2377C17.679 15.2377 17.6385 15.345 17.556 15.4927C21.1335 16.9177 22.0012 17.3527 22.266 17.6175C22.7685 18.1185 22.8465 19.3545 22.8247 20.3137H23.1847V16.335L23.1472 16.3185C22.4272 16.0312 22.1392 15.2385 22.1392 15.2385C22.1392 15.2385 21.8145 15.4185 21.8145 14.916C21.8145 14.4135 22.1392 15.2385 22.4625 13.296C22.4625 13.296 23.0655 13.1235 23.1847 11.916V10.995C23.1847 10.9815 23.1847 10.9702 23.1825 10.9575H22.965C22.965 10.9575 23.127 10.29 23.1847 9.56098V8.67898Z" fill="white"/>
</svg>
