<svg width="15" height="15" viewBox="0 0 15 15" fill="none" xmlns="http://www.w3.org/2000/svg">
<path d="M6.68067 0.180664H10.6807V1.514H6.68067V0.180664ZM13.36 4.44L14.316 3.484L13.3733 2.54133L12.418 3.49666C11.3713 2.65787 10.0734 2.1945 8.73213 2.18072C7.39086 2.16694 6.08374 2.60355 5.02001 3.42066L5.96667 4.38066C6.7576 3.8189 7.70322 3.51612 8.67334 3.514L8.68001 3.51466V8.168L11.982 11.4733C11.3301 12.1283 10.4985 12.5749 9.59255 12.7568C8.68658 12.9387 7.74701 12.8475 6.89289 12.4949C6.03878 12.1422 5.30855 11.544 4.79474 10.776C4.28093 10.008 4.00666 9.10471 4.00667 8.18066H6.00667L3.34001 5.514L0.67334 8.18066H2.67334C2.67243 9.13944 2.9013 10.0845 3.34078 10.9366C3.78026 11.7887 4.41754 12.5231 5.19924 13.0782C5.98095 13.6334 6.88431 13.9931 7.83365 14.1273C8.78299 14.2615 9.75066 14.1662 10.6556 13.8494C11.5605 13.5327 12.3764 13.0037 13.0348 12.3067C13.6932 11.6098 14.175 10.7652 14.4399 9.84373C14.7047 8.92227 14.7449 7.95075 14.557 7.01056C14.3691 6.07038 13.9587 5.18891 13.36 4.44Z" fill="white"/>
</svg>
