<svg width="14" height="12" viewBox="0 0 14 12" fill="none" xmlns="http://www.w3.org/2000/svg">
<path d="M11.6668 2.16671H11.0002V1.50004C11.0002 1.10004 10.7335 0.833374 10.3335 0.833374C9.9335 0.833374 9.66683 1.10004 9.66683 1.50004V2.16671H4.3335V1.50004C4.3335 1.10004 4.06683 0.833374 3.66683 0.833374C3.26683 0.833374 3.00016 1.10004 3.00016 1.50004V2.16671H2.3335C1.20016 2.16671 0.333496 3.03337 0.333496 4.16671V4.83337H13.6668V4.16671C13.6668 3.03337 12.8002 2.16671 11.6668 2.16671ZM0.333496 12.1667C0.333496 13.3 1.20016 14.1667 2.3335 14.1667H11.6668C12.8002 14.1667 13.6668 13.3 13.6668 12.1667V6.16671H0.333496V12.1667ZM10.3335 7.50004C10.7335 7.50004 11.0002 7.76671 11.0002 8.16671C11.0002 8.56671 10.7335 8.83337 10.3335 8.83337C9.9335 8.83337 9.66683 8.56671 9.66683 8.16671C9.66683 7.76671 9.9335 7.50004 10.3335 7.50004ZM10.3335 10.1667C10.7335 10.1667 11.0002 10.4334 11.0002 10.8334C11.0002 11.2334 10.7335 11.5 10.3335 11.5C9.9335 11.5 9.66683 11.2334 9.66683 10.8334C9.66683 10.4334 9.9335 10.1667 10.3335 10.1667ZM7.00016 7.50004C7.40016 7.50004 7.66683 7.76671 7.66683 8.16671C7.66683 8.56671 7.40016 8.83337 7.00016 8.83337C6.60016 8.83337 6.3335 8.56671 6.3335 8.16671C6.3335 7.76671 6.60016 7.50004 7.00016 7.50004ZM7.00016 10.1667C7.40016 10.1667 7.66683 10.4334 7.66683 10.8334C7.66683 11.2334 7.40016 11.5 7.00016 11.5C6.60016 11.5 6.3335 11.2334 6.3335 10.8334C6.3335 10.4334 6.60016 10.1667 7.00016 10.1667ZM3.66683 7.50004C4.06683 7.50004 4.3335 7.76671 4.3335 8.16671C4.3335 8.56671 4.06683 8.83337 3.66683 8.83337C3.26683 8.83337 3.00016 8.56671 3.00016 8.16671C3.00016 7.76671 3.26683 7.50004 3.66683 7.50004ZM3.66683 10.1667C4.06683 10.1667 4.3335 10.4334 4.3335 10.8334C4.3335 11.2334 4.06683 11.5 3.66683 11.5C3.26683 11.5 3.00016 11.2334 3.00016 10.8334C3.00016 10.4334 3.26683 10.1667 3.66683 10.1667Z" fill="white"/>
</svg>
