<svg width="24" height="24" viewBox="0 0 24 24" fill="none" xmlns="http://www.w3.org/2000/svg">
<path fill-rule="evenodd" clip-rule="evenodd" d="M4.5 3H19.5C19.8978 3 20.2794 3.15804 20.5607 3.43934C20.842 3.72064 21 4.10218 21 4.5V19.5C21 19.8978 20.842 20.2794 20.5607 20.5607C20.2794 20.842 19.8978 21 19.5 21H4.5C4.10218 21 3.72064 20.842 3.43934 20.5607C3.15804 20.2794 3 19.8978 3 19.5V4.5C3 4.10218 3.15804 3.72064 3.43934 3.43934C3.72064 3.15804 4.10218 3 4.5 3ZM6.99997 6.5C6.44768 6.5 5.99997 6.94772 5.99997 7.5C5.99997 8.05228 6.44768 8.5 6.99997 8.5H17C17.5522 8.5 18 8.05228 18 7.5C18 6.94772 17.5522 6.5 17 6.5H6.99997ZM6.99997 10.5C6.44768 10.5 5.99997 10.9477 5.99997 11.5C5.99997 12.0523 6.44768 12.5 6.99997 12.5H11C11.5522 12.5 12 12.0523 12 11.5C12 10.9477 11.5522 10.5 11 10.5H6.99997ZM17.7808 13.1247C18.1258 12.6934 18.0559 12.0641 17.6247 11.7191C17.1934 11.3741 16.5641 11.444 16.2191 11.8753L12.8438 16.0944L11.1247 14.7191C10.6934 14.3741 10.0641 14.444 9.7191 14.8753C9.37409 15.3066 9.44401 15.9359 9.87527 16.2809L12.3753 18.2809C12.8065 18.6259 13.4358 18.556 13.7808 18.1247L17.7808 13.1247Z" fill="white"/>
</svg>
