<svg width="12" height="13" viewBox="0 0 12 13" fill="none" xmlns="http://www.w3.org/2000/svg">
<path d="M5.99999 3.3001C9.11999 3.3001 11.6 2.5801 11.6 1.7001C11.6 0.820098 9.11999 0.100098 5.99999 0.100098C2.87999 0.100098 0.399994 0.820098 0.399994 1.7001C0.399994 2.5801 2.87999 3.3001 5.99999 3.3001ZM5.99999 10.5001C2.87999 10.5001 0.399994 9.7801 0.399994 8.9001V11.3001C0.399994 12.1801 2.87999 12.9001 5.99999 12.9001C9.11999 12.9001 11.6 12.1801 11.6 11.3001V8.9001C11.6 9.7801 9.11999 10.5001 5.99999 10.5001ZM5.99999 7.3001C2.87999 7.3001 0.399994 6.5801 0.399994 5.7001V8.1001C0.399994 8.9801 2.87999 9.7001 5.99999 9.7001C9.11999 9.7001 11.6 8.9801 11.6 8.1001V5.7001C11.6 6.5801 9.11999 7.3001 5.99999 7.3001ZM5.99999 4.1001C2.87999 4.1001 0.399994 3.3801 0.399994 2.5001V4.9001C0.399994 5.7801 2.87999 6.5001 5.99999 6.5001C9.11999 6.5001 11.6 5.7801 11.6 4.9001V2.5001C11.6 3.3801 9.11999 4.1001 5.99999 4.1001Z" fill="#4CAF50"/>
</svg>
