<svg width="14" height="14" viewBox="0 0 14 14" fill="none" xmlns="http://www.w3.org/2000/svg">
<path d="M13.1891 5.01739L9.22187 4.44083L7.44844 0.845514C7.4 0.747076 7.32031 0.667389 7.22187 0.618951C6.975 0.497076 6.675 0.598639 6.55156 0.845514L4.77812 4.44083L0.810936 5.01739C0.701561 5.03301 0.601561 5.08458 0.524999 5.1627C0.432439 5.25784 0.381434 5.38583 0.383192 5.51855C0.38495 5.65127 0.439327 5.77786 0.534374 5.87051L3.40469 8.66895L2.72656 12.6205C2.71066 12.7124 2.72083 12.807 2.75592 12.8934C2.79102 12.9798 2.84963 13.0547 2.92511 13.1095C3.00059 13.1644 3.08992 13.1969 3.18297 13.2036C3.27602 13.2102 3.36907 13.1906 3.45156 13.1471L7 11.2815L10.5484 13.1471C10.6453 13.1986 10.7578 13.2158 10.8656 13.1971C11.1375 13.1502 11.3203 12.8924 11.2734 12.6205L10.5953 8.66895L13.4656 5.87051C13.5437 5.79395 13.5953 5.69395 13.6109 5.58458C13.6531 5.31114 13.4625 5.05801 13.1891 5.01739Z" fill="white"/>
</svg>
