<svg width="16" height="15" viewBox="0 0 16 15" fill="none" xmlns="http://www.w3.org/2000/svg">
<path d="M10.5889 4.17513L14.5806 4.76402C14.9111 4.81124 15.1889 5.04458 15.2945 5.36402C15.4 5.68625 15.3139 6.03624 15.075 6.27513L12.1806 9.11402L12.8639 13.1862C12.9195 13.5196 12.7833 13.8585 12.5056 14.0557C12.2306 14.2529 11.8667 14.2779 11.5695 14.1196L8.00279 12.2168L4.4389 14.1196C4.1389 14.2779 3.77501 14.2529 3.50001 14.0557C3.22501 13.8585 3.08612 13.5196 3.14445 13.1862L3.82779 9.11402L0.932785 6.27513C0.693618 6.03624 0.608618 5.68625 0.713618 5.36402C0.818341 5.04458 1.09528 4.81124 1.42834 4.76402L5.41667 4.17513L7.20556 0.499301C7.35278 0.193301 7.6639 -0.000976562 8.00279 -0.000976562C8.34445 -0.000976562 8.65556 0.193301 8.80278 0.499301L10.5889 4.17513Z" fill="#FFC702"/>
</svg>
