<svg width="40" height="40" viewBox="0 0 40 40" fill="none" xmlns="http://www.w3.org/2000/svg">
<g clip-path="url(#clip0_296_2009)">
<path d="M20.2837 20.0187L2.56873 32.6562C3.52998 33.3474 4.7556 33.7524 6.24998 33.7524H33.75C37.8918 33.7524 40 30.6743 40 26.8774V20.0024H20.26L20.2837 20.0199" fill="#EC1C24"/>
<path d="M33.75 6.25H6.24996C4.87434 6.25 3.72496 6.595 2.80371 7.1875L20.26 20H40V13.125C40 9.32812 37.8918 6.25 33.75 6.25Z" fill="#1B75BB"/>
<path d="M20.26 20L2.80375 7.1875C0.945625 8.37937 0 10.5887 0 13.125V26.875C0 29.3019 0.865625 31.4306 2.56875 32.6537L20.2837 20.0175L20.26 20Z" fill="#E6E7E8"/>
<path fill-rule="evenodd" clip-rule="evenodd" d="M12.7044 19.9887C12.6775 19.9025 12.4406 19.7412 12.3456 19.7468C11.7388 19.7843 11.1344 19.825 10.5281 19.8618L10.5144 19.8637C10.5125 19.8143 10.5063 19.7656 10.5006 19.7168L10.5131 19.7162C10.8713 19.6693 11.2294 19.6243 11.5869 19.5775C11.7994 19.5487 12.0131 19.5181 12.2369 19.4868C12.1319 19.3056 12.0131 19.2562 11.8213 19.3018C11.3856 19.4056 10.9431 19.4806 10.505 19.5725L10.4788 19.5775C10.4226 19.2891 10.3096 19.0148 10.1463 18.7706C10.1619 18.7587 10.18 18.7462 10.2 18.7331C10.575 18.4893 10.9463 18.2368 11.3194 17.9875C11.4969 17.8693 11.5144 17.8168 11.4425 17.595C10.985 17.9462 10.5294 18.2962 10.0731 18.6431C10.0685 18.6456 10.0647 18.6493 10.0619 18.6537L9.97064 18.5431C9.97564 18.5393 9.97939 18.535 9.98502 18.5312C10.4306 18.1362 10.88 17.7437 11.3269 17.3493C11.42 17.2681 11.4775 17.0225 11.4281 16.9168C11.4192 16.8984 11.4042 16.8836 11.3856 16.875C11.2775 16.8256 11.0363 16.8831 10.9531 16.9768C10.5588 17.425 10.1681 17.875 9.77189 18.3206C9.76752 18.325 9.76439 18.33 9.76127 18.3343C9.72439 18.3031 9.68939 18.2731 9.65002 18.2437C9.65439 18.2406 9.65752 18.2356 9.66127 18.2318C9.98314 17.8093 10.3044 17.3893 10.6281 16.9675C10.6563 16.9312 10.7006 16.9012 10.6963 16.8437C10.4313 16.81 10.4313 16.81 10.2963 17.0131C10.0413 17.3956 9.78564 17.7762 9.53252 18.1593C9.28876 17.9963 9.01518 17.8831 8.72752 17.8262L8.72877 17.8193C8.82002 17.3756 8.89564 16.9275 9.00189 16.4868C9.04752 16.2937 9.00314 16.1743 8.81502 16.0662C8.73814 16.6493 8.66439 17.2181 8.58689 17.7856L8.58627 17.8031C8.53877 17.7975 8.49189 17.7918 8.44314 17.7887C8.44439 17.7856 8.44439 17.7812 8.44439 17.7775C8.48252 17.1712 8.52189 16.5662 8.55877 15.96C8.56564 15.8606 8.40939 15.63 8.31877 15.6C8.30409 15.5956 8.28845 15.5956 8.27377 15.6C8.17627 15.6337 8.02502 15.865 8.03252 15.9762C8.07064 16.5712 8.11189 17.1662 8.15002 17.7606C8.15002 17.7693 8.15189 17.7787 8.15439 17.7881C8.10427 17.7916 8.05426 17.7963 8.00439 17.8025L8.00314 17.785C7.93314 17.2593 7.86627 16.7325 7.79814 16.2068C7.79189 16.1631 7.80314 16.1093 7.75127 16.0793C7.54939 16.2456 7.55002 16.2456 7.59689 16.4737C7.68439 16.9137 7.76814 17.3531 7.85877 17.7918C7.86189 17.8031 7.86314 17.8143 7.86564 17.8256C7.57252 17.8818 7.30002 17.9981 7.06064 18.1587C7.04872 18.1419 7.03684 18.125 7.02502 18.1081C6.78439 17.7362 6.53564 17.37 6.28939 17.0018C6.15189 16.7956 6.14064 16.7918 5.88564 16.8562C5.91877 16.9025 5.95002 16.9468 5.98189 16.9893C6.30064 17.4075 6.62314 17.825 6.94189 18.2456C6.90502 18.2756 6.86752 18.3056 6.83064 18.3381C6.80935 18.3132 6.78768 18.2886 6.76564 18.2643L5.63127 16.9687C5.55689 16.8831 5.30627 16.8287 5.20939 16.8762C5.19089 16.8858 5.17631 16.9014 5.16814 16.9206C5.11689 17.0356 5.18002 17.2775 5.28002 17.3656C5.72377 17.755 6.16939 18.1443 6.61127 18.5356C6.61627 18.5387 6.61939 18.5418 6.62439 18.5443C6.59252 18.58 6.56189 18.6175 6.53377 18.655L6.51939 18.6431C6.09752 18.3231 5.67627 17.9987 5.25689 17.6775C5.22127 17.6493 5.19127 17.6012 5.13439 17.6106C5.08502 17.7912 5.13627 17.9112 5.30314 18.0143C5.69314 18.2562 6.06814 18.5212 6.45002 18.7725C6.29002 19.0118 6.17502 19.285 6.11877 19.5787C6.11439 19.5775 6.11064 19.5775 6.10752 19.5756C5.65877 19.4837 5.20814 19.3937 4.75939 19.3018C4.53752 19.2575 4.48939 19.2787 4.37002 19.4856C4.41002 19.495 4.44564 19.5056 4.48252 19.5106C5.00877 19.5787 5.53627 19.6462 6.06002 19.7168L6.09564 19.7175C6.08862 19.7656 6.08383 19.8139 6.08127 19.8625C6.07189 19.8606 6.06377 19.8587 6.05314 19.8587C5.45377 19.8231 4.85189 19.7831 4.25252 19.7475C4.15064 19.7412 3.92002 19.8993 3.89127 19.9875C3.88792 20.0023 3.88835 20.0178 3.89252 20.0325C3.92627 20.1287 4.16064 20.28 4.27002 20.2725C4.86377 20.2337 5.45814 20.1925 6.05439 20.155C6.06314 20.155 6.07127 20.1531 6.08064 20.1512C6.08377 20.2012 6.08877 20.2506 6.09502 20.3006L6.07877 20.3018C5.70314 20.3525 5.32939 20.3943 4.95439 20.4475C4.75877 20.475 4.55939 20.4818 4.36252 20.5425C4.53377 20.7568 4.53377 20.7562 4.77502 20.7075C5.20939 20.6206 5.64377 20.5356 6.07627 20.4468C6.09013 20.4438 6.1041 20.4413 6.11814 20.4393C6.17423 20.728 6.28795 21.0025 6.45252 21.2462C6.44689 21.2506 6.44127 21.2531 6.43564 21.2568C6.05439 21.5031 5.68564 21.7681 5.29814 22.0062C5.12877 22.11 5.08752 22.2312 5.13502 22.4093C5.20189 22.405 5.23439 22.3581 5.27564 22.325C5.69314 22.0075 6.11064 21.6868 6.52564 21.3706L6.53377 21.3618C6.56377 21.4006 6.59252 21.4368 6.62439 21.4725L6.61752 21.4781C6.16564 21.8775 5.71314 22.2725 5.26064 22.6693C5.17689 22.7425 5.11939 23.0181 5.17189 23.1062C5.18321 23.1238 5.20053 23.1367 5.22064 23.1425C5.34752 23.1893 5.55502 23.1343 5.64814 23.0293C6.04189 22.58 6.43377 22.1318 6.83002 21.6856C6.83002 21.6837 6.83189 21.6818 6.83377 21.6806C6.86814 21.7112 6.90564 21.7425 6.94252 21.7718L6.93502 21.7787C6.61939 22.1987 6.29689 22.6137 5.97939 23.0287C5.94627 23.0725 5.88752 23.1081 5.89877 23.1718C6.09814 23.2368 6.21189 23.1487 6.31314 22.9837C6.55252 22.605 6.81064 22.2381 7.05564 21.8618L7.06064 21.8543C7.30002 22.0143 7.57252 22.13 7.86564 22.1875C7.86314 22.1987 7.86189 22.2118 7.85877 22.2256C7.76752 22.6637 7.68314 23.1043 7.59564 23.5425C7.54814 23.7831 7.55627 23.805 7.77814 23.9393L7.89939 23.0262C7.93502 22.7537 7.96877 22.4825 8.00564 22.2106C8.05502 22.2168 8.10377 22.2218 8.15189 22.2243C8.15127 22.2568 8.14689 22.2893 8.14377 22.3225C8.10627 22.895 8.06877 23.4687 8.03252 24.0412C8.02439 24.1468 8.18627 24.3881 8.27814 24.415C8.29299 24.4179 8.30836 24.4166 8.32252 24.4112C8.42877 24.3712 8.56564 24.1512 8.55814 24.0318C8.52002 23.4312 8.48064 22.8306 8.44314 22.2312V22.2237C8.49064 22.2212 8.53877 22.2162 8.58627 22.2106L8.58689 22.2206C8.62189 22.4868 8.65439 22.7518 8.69064 23.0175L8.81627 23.945C9.04564 23.7825 9.04689 23.7762 8.99877 23.5393C8.90814 23.0943 8.82377 22.65 8.72939 22.2056C8.72881 22.1994 8.72755 22.1933 8.72564 22.1875C9.01395 22.1311 9.28821 22.0181 9.53252 21.855C9.53744 21.8606 9.54183 21.8667 9.54564 21.8731C9.79064 22.2556 10.0563 22.6243 10.2956 23.01C10.3988 23.1781 10.5194 23.2206 10.6956 23.1712C10.6919 23.1056 10.6444 23.0712 10.6125 23.0287C10.2975 22.6156 9.98002 22.2043 9.66752 21.7906C9.66127 21.7831 9.65502 21.7775 9.64814 21.7712C9.68752 21.7412 9.72252 21.7106 9.76002 21.6793C9.76377 21.6856 9.76814 21.6912 9.77189 21.695C10.1681 22.1412 10.5606 22.5906 10.9538 23.0381C11.0363 23.1306 11.2806 23.1881 11.3881 23.1381C11.4061 23.1287 11.4204 23.1135 11.4288 23.095C11.4769 22.9868 11.4194 22.745 11.3256 22.6631L9.96814 21.4725C10 21.4356 10.0294 21.4006 10.0581 21.3625C10.06 21.3625 10.0613 21.3625 10.0613 21.3637C10.3875 21.6112 10.7113 21.8643 11.0381 22.11C11.1763 22.2137 11.3019 22.335 11.46 22.4156C11.5125 22.2168 11.4481 22.0956 11.2788 21.9918C10.8975 21.7575 10.53 21.4956 10.1556 21.2506C10.1519 21.2481 10.1488 21.2443 10.1444 21.2425C10.3044 21.0025 10.4213 20.7306 10.4781 20.4368C10.485 20.4368 10.4888 20.4387 10.4944 20.4393C10.9425 20.5318 11.3975 20.6075 11.8425 20.7162C12.0406 20.7656 12.1344 20.6837 12.2325 20.5368C12.1863 20.525 12.15 20.5118 12.1125 20.5068C11.5925 20.4381 11.0725 20.3712 10.5531 20.3C10.5375 20.2981 10.5181 20.2987 10.5006 20.2987C10.5069 20.2481 10.5131 20.1975 10.5163 20.1468C10.5292 20.1504 10.5424 20.1533 10.5556 20.1556C11.1463 20.1906 11.735 20.2312 12.3244 20.2693C12.4363 20.2768 12.6681 20.1275 12.7038 20.0306C12.7076 20.0167 12.7074 20.0019 12.7031 19.9881" fill="#FAAA33"/>
<path d="M3.09558 10.6375L3.4887 11.4331L4.36558 11.5612L3.7312 12.18L3.88058 13.0543L3.09558 12.6418L2.30995 13.0543L2.46058 12.18L1.82495 11.5612L2.70245 11.4331L3.09558 10.6375ZM3.09558 26.4812L3.4887 27.2731L4.36558 27.4012L3.7312 28.02L3.88058 28.8937L3.09558 28.4812L2.30995 28.8937L2.46058 28.02L1.82495 27.4012L2.70245 27.2731L3.09558 26.4812ZM16.1037 18.4818L16.4968 19.2768L17.3743 19.4062L16.7387 20.025L16.8875 20.8981L16.1037 20.4856L15.3181 20.8981L15.4681 20.025L14.8325 19.4062L15.7125 19.2768L16.1037 18.4818Z" fill="#FAAA33"/>
</g>
<defs>
<clipPath id="clip0_296_2009">
<rect width="40" height="40" fill="white"/>
</clipPath>
</defs>
</svg>
