<svg width="138" height="138" viewBox="0 0 138 138" fill="none" xmlns="http://www.w3.org/2000/svg">
<path d="M121.401 112.534C128.403 104.11 133.272 94.1242 135.597 83.4209C137.923 72.7175 137.637 61.6115 134.762 51.0423C131.888 40.4731 126.51 30.7516 119.084 22.7003C111.658 14.649 102.402 8.5047 92.0991 4.78717C81.7961 1.06964 70.7494 -0.111742 59.8933 1.34296C49.0373 2.79766 38.6912 6.84565 29.7305 13.1445C20.7698 19.4433 13.4579 27.8077 8.41347 37.53C3.36903 47.2524 0.740432 58.0467 0.750026 68.9998C0.753708 84.9224 6.36478 100.335 16.5987 112.534L16.5012 112.616C16.8424 113.026 17.2324 113.377 17.5834 113.782C18.0222 114.284 18.495 114.757 18.9484 115.244C20.3134 116.726 21.7174 118.15 23.1897 119.485C23.6382 119.895 24.1013 120.275 24.5546 120.665C26.1147 122.011 27.7185 123.288 29.3809 124.477C29.5954 124.624 29.7904 124.814 30.0049 124.965V124.906C41.4227 132.941 55.0434 137.253 69.0049 137.253C82.9664 137.253 96.5872 132.941 108.005 124.906V124.965C108.219 124.814 108.41 124.624 108.629 124.477C110.286 123.283 111.895 122.011 113.455 120.665C113.909 120.275 114.372 119.89 114.82 119.485C116.292 118.145 117.696 116.726 119.061 115.244C119.515 114.757 119.983 114.284 120.426 113.782C120.773 113.377 121.167 113.026 121.509 112.612L121.401 112.534ZM69 29.9998C73.3389 29.9998 77.5803 31.2864 81.1879 33.6969C84.7955 36.1074 87.6072 39.5336 89.2676 43.5421C90.928 47.5507 91.3625 51.9616 90.516 56.2171C89.6695 60.4725 87.5802 64.3814 84.5122 67.4494C81.4442 70.5174 77.5353 72.6068 73.2798 73.4532C69.0244 74.2997 64.6135 73.8653 60.6049 72.2049C56.5964 70.5445 53.1702 67.7327 50.7597 64.1251C48.3491 60.5175 47.0625 56.2761 47.0625 51.9373C47.0625 46.1191 49.3738 40.5392 53.4879 36.4251C57.602 32.311 63.1818 29.9998 69 29.9998ZM30.0342 112.534C30.1187 106.132 32.72 100.022 37.2753 95.5243C41.8305 91.0266 47.9734 88.503 54.375 88.4998H83.625C90.0266 88.503 96.1695 91.0266 100.725 95.5243C105.28 100.022 107.881 106.132 107.966 112.534C97.2743 122.168 83.3923 127.5 69 127.5C54.6078 127.5 40.7258 122.168 30.0342 112.534Z" fill="white"/>
</svg>
