<svg width="16" height="20" viewBox="0 0 16 20" fill="none" xmlns="http://www.w3.org/2000/svg">
<path d="M6.598 0.00994217L15.598 2.00994C15.7113 2.03259 15.8133 2.09378 15.8866 2.18311C15.9598 2.27244 15.9999 2.3844 16 2.49994V17.4999C15.9999 17.6155 15.9598 17.7274 15.8866 17.8168C15.8133 17.9061 15.7113 17.9673 15.598 17.9899L6.598 19.9899C6.52549 20.0044 6.45067 20.0027 6.37892 19.9848C6.30718 19.9669 6.2403 19.9333 6.1831 19.8864C6.1259 19.8395 6.07981 19.7806 6.04815 19.7137C6.01649 19.6469 6.00004 19.5739 6 19.4999V0.499942C6.00004 0.425997 6.01649 0.352981 6.04815 0.286157C6.07981 0.219333 6.1259 0.160363 6.1831 0.113496C6.2403 0.0666294 6.30718 0.0330324 6.37892 0.0151259C6.45067 -0.0027807 6.52549 -0.00455118 6.598 0.00994217ZM5 1.99994V17.9999H0.75C0.568762 17.9999 0.393658 17.9343 0.25707 17.8152C0.120481 17.6961 0.0316483 17.5315 0.00699997 17.3519L0 17.2499V2.74994C7.6429e-06 2.5687 0.0656429 2.3936 0.184767 2.25701C0.303892 2.12042 0.468446 2.03159 0.648 2.00694L0.75 1.99994H5ZM9 8.99994C8.73478 8.99994 8.48043 9.1053 8.29289 9.29284C8.10536 9.48037 8 9.73472 8 9.99994C8 10.2652 8.10536 10.5195 8.29289 10.707C8.48043 10.8946 8.73478 10.9999 9 10.9999C9.26522 10.9999 9.51957 10.8946 9.70711 10.707C9.89464 10.5195 10 10.2652 10 9.99994C10 9.73472 9.89464 9.48037 9.70711 9.29284C9.51957 9.1053 9.26522 8.99994 9 8.99994Z" fill="white"/>
</svg>
