<svg width="24" height="18" viewBox="0 0 24 18" fill="none" xmlns="http://www.w3.org/2000/svg">
<path d="M15.7897 12.6C14.9407 12.2602 14.6017 11.3265 14.6017 11.3265C14.6017 11.3265 14.2192 11.538 14.2192 10.944C14.2192 10.35 14.6017 11.3265 14.9842 9.03298C14.9842 9.03298 16.044 8.73523 15.8317 6.27298H15.5767C15.5767 6.27298 16.2142 3.64048 15.5767 2.74798C14.9392 1.85698 14.6857 1.26298 13.284 0.837731C11.8822 0.412481 12.393 0.497232 11.3737 0.540732C10.3537 0.584232 9.50474 1.13548 9.50474 1.43323C9.50474 1.43323 8.86724 1.47523 8.61374 1.73023C8.35874 1.98523 7.93424 3.17323 7.93424 3.47023C7.93424 3.76723 8.14649 5.76523 8.35874 6.18898L8.10599 6.27448C7.89299 8.73673 8.95349 9.03448 8.95349 9.03448C9.33599 11.328 9.71849 10.3515 9.71849 10.9455C9.71849 11.5395 9.33599 11.328 9.33599 11.328C9.33599 11.328 8.99699 12.2617 8.14799 12.6015C7.29899 12.9405 2.58599 14.766 2.20274 15.1485C1.81874 15.531 1.86224 17.3145 1.86224 17.3145H22.0725C22.0725 17.3145 22.1175 15.5317 21.7335 15.1485C21.351 14.766 16.6372 12.9405 15.7882 12.6015L15.7897 12.6ZM6.43724 12.471C6.36224 12.336 6.32624 12.2385 6.32624 12.2385C6.32624 12.2385 6.00224 12.4185 6.00224 11.9145C6.00224 11.4105 6.32624 12.2385 6.65024 10.2945C6.65024 10.2945 7.55024 10.0432 7.37024 7.95598H7.15274C7.15274 7.95598 7.26074 7.51348 7.33124 6.95548C7.32808 6.70618 7.33734 6.45687 7.35899 6.20848L7.38749 5.88898C7.37249 5.51998 7.30724 5.18398 7.15349 4.96948C6.61349 4.21423 6.39749 3.70948 5.21099 3.34948C4.02299 2.98948 4.45349 3.06148 3.59099 3.09823C2.72699 3.13573 2.00699 3.60223 2.00699 3.85573C2.00699 3.85573 1.46699 3.89098 1.25099 4.10698C1.04849 4.30948 0.722243 5.20348 0.683243 5.52073V5.73073C0.719243 6.22123 0.878243 7.56823 1.03574 7.88548L0.821243 7.95748C0.641243 10.044 1.54124 10.296 1.54124 10.296C1.86374 12.2385 2.18849 11.412 2.18849 11.916C2.18849 12.42 1.86449 12.2385 1.86449 12.2385C1.86449 12.2385 1.57724 13.032 0.857243 13.3185L0.683243 13.3875V17.313H1.11449C1.09199 16.3545 1.17224 15.1177 1.67399 14.6175C1.94174 14.3512 2.81699 13.9125 6.43874 12.471H6.43724ZM23.1847 5.67898C23.1547 5.39548 23.0895 5.14273 22.9657 4.96948C22.4272 4.21348 22.2105 3.70948 21.0232 3.34948C19.836 2.98948 20.268 3.06148 19.4032 3.09823C18.5407 3.13573 17.8207 3.60223 17.8207 3.85573C17.8207 3.85573 17.2807 3.89098 17.0647 4.10698C16.8622 4.31098 16.5322 5.21098 16.4962 5.52448H16.521L16.581 6.20998C16.596 6.38248 16.5975 6.53623 16.6012 6.69298C16.6687 7.19248 16.7587 7.70548 16.8487 7.88548L16.6342 7.95673C16.4542 10.0432 17.3542 10.2952 17.3542 10.2952C17.6782 12.2377 18.0015 11.4112 18.0015 11.9152C18.0015 12.4192 17.679 12.2377 17.679 12.2377C17.679 12.2377 17.6385 12.345 17.556 12.4927C21.1335 13.9177 22.0012 14.3527 22.266 14.6175C22.7685 15.1185 22.8465 16.3545 22.8247 17.3137H23.1847V13.335L23.1472 13.3185C22.4272 13.0312 22.1392 12.2385 22.1392 12.2385C22.1392 12.2385 21.8145 12.4185 21.8145 11.916C21.8145 11.4135 22.1392 12.2385 22.4625 10.296C22.4625 10.296 23.0655 10.1235 23.1847 8.91598V7.99498C23.1847 7.98148 23.1847 7.97023 23.1825 7.95748H22.965C22.965 7.95748 23.127 7.28998 23.1847 6.56098V5.67898Z" fill="white"/>
</svg>
