<svg width="32" height="34" viewBox="0 0 32 34" fill="none" xmlns="http://www.w3.org/2000/svg">
<path fill-rule="evenodd" clip-rule="evenodd" d="M18.9482 0.873645C18.239 0.660898 17.4899 0.616888 16.7607 0.745128C16.0315 0.873367 15.3423 1.1703 14.7482 1.61224C14.1542 2.05417 13.6716 2.62886 13.3392 3.29043C13.0067 3.95201 12.8335 4.68214 12.8334 5.42256V28.5772C12.8335 29.3176 13.0067 30.0478 13.3392 30.7094C13.6716 31.3709 14.1542 31.9456 14.7482 32.3876C15.3423 32.8295 16.0315 33.1264 16.7607 33.2547C17.4899 33.3829 18.239 33.3389 18.9482 33.1261L28.4482 30.2761C29.4265 29.9827 30.2842 29.3816 30.894 28.5622C31.5038 27.7428 31.8332 26.7486 31.8334 25.7272V8.27256C31.8332 7.25115 31.5038 6.257 30.894 5.43758C30.2842 4.61816 29.4265 4.01713 28.4482 3.72364L18.9482 0.873645ZM11.25 4.33323C11.25 3.9133 11.0832 3.51057 10.7863 3.21364C10.4894 2.91671 10.0866 2.74989 9.66671 2.74989H4.91671C3.65693 2.74989 2.44875 3.25034 1.55795 4.14114C0.667152 5.03194 0.16671 6.24012 0.16671 7.49989V9.08323C0.16671 9.50315 0.333523 9.90588 0.630455 10.2028C0.927387 10.4997 1.33012 10.6666 1.75004 10.6666C2.16997 10.6666 2.5727 10.4997 2.86963 10.2028C3.16656 9.90588 3.33338 9.50315 3.33338 9.08323V7.49989C3.33338 7.07997 3.50019 6.67724 3.79712 6.38031C4.09406 6.08338 4.49678 5.91656 4.91671 5.91656H9.66671C10.0866 5.91656 10.4894 5.74975 10.7863 5.45281C11.0832 5.15588 11.25 4.75315 11.25 4.33323ZM1.75004 23.3332C1.33012 23.3332 0.927387 23.5 0.630455 23.797C0.333523 24.0939 0.16671 24.4966 0.16671 24.9166V26.4999C0.16671 27.7597 0.667152 28.9679 1.55795 29.8587C2.44875 30.7495 3.65693 31.2499 4.91671 31.2499H9.66671C10.0866 31.2499 10.4894 31.0831 10.7863 30.7861C11.0832 30.4892 11.25 30.0865 11.25 29.6666C11.25 29.2466 11.0832 28.8439 10.7863 28.547C10.4894 28.25 10.0866 28.0832 9.66671 28.0832H4.91671C4.49678 28.0832 4.09406 27.9164 3.79712 27.6195C3.50019 27.3225 3.33338 26.9198 3.33338 26.4999V24.9166C3.33338 24.4966 3.16656 24.0939 2.86963 23.797C2.5727 23.5 2.16997 23.3332 1.75004 23.3332ZM20.75 15.4166C21.17 15.4166 21.5727 15.5834 21.8696 15.8803C22.1666 16.1772 22.3334 16.58 22.3334 16.9999C22.3334 17.4198 22.1666 17.8225 21.8696 18.1195C21.5727 18.4164 21.17 18.5832 20.75 18.5832H20.7485C20.3285 18.5832 19.9258 18.4164 19.6289 18.1195C19.3319 17.8225 19.1651 17.4198 19.1651 16.9999C19.1651 16.58 19.3319 16.1772 19.6289 15.8803C19.9258 15.5834 20.3285 15.4166 20.7485 15.4166H20.75Z" fill="#4CAF50"/>
<path d="M1.75 16.9999H9.66667M9.66667 16.9999L6.5 13.8333M9.66667 16.9999L6.5 20.1666" stroke="#4CAF50" stroke-width="2" stroke-linecap="round" stroke-linejoin="round"/>
</svg>
