<svg width="14" height="11" viewBox="0 0 14 11" fill="none" xmlns="http://www.w3.org/2000/svg">
<path d="M5.1875 5.5C5.1875 5.96413 5.37187 6.40925 5.70006 6.73744C6.02825 7.06563 6.47337 7.25 6.9375 7.25C7.40163 7.25 7.84675 7.06563 8.17494 6.73744C8.50312 6.40925 8.6875 5.96413 8.6875 5.5C8.6875 5.03587 8.50312 4.59075 8.17494 4.26256C7.84675 3.93437 7.40163 3.75 6.9375 3.75C6.47337 3.75 6.02825 3.93437 5.70006 4.26256C5.37187 4.59075 5.1875 5.03587 5.1875 5.5ZM13.7219 5.09688C12.2406 1.97656 10.0016 0.40625 7 0.40625C3.99687 0.40625 1.75937 1.97656 0.278124 5.09844C0.21871 5.22425 0.187897 5.36165 0.187897 5.50078C0.187897 5.63991 0.21871 5.77732 0.278124 5.90312C1.75937 9.02344 3.99844 10.5938 7 10.5938C10.0031 10.5938 12.2406 9.02344 13.7219 5.90156C13.8422 5.64844 13.8422 5.35469 13.7219 5.09688ZM6.9375 8.25C5.41875 8.25 4.1875 7.01875 4.1875 5.5C4.1875 3.98125 5.41875 2.75 6.9375 2.75C8.45625 2.75 9.6875 3.98125 9.6875 5.5C9.6875 7.01875 8.45625 8.25 6.9375 8.25Z" fill="#F8F8F8"/>
</svg>
