<svg width="16" height="19" viewBox="0 0 16 19" fill="none" xmlns="http://www.w3.org/2000/svg">
<path d="M5.71429 1.15625V2.3125H10.2857V1.15625C10.2857 0.517783 10.7964 0 11.4286 0C12.0607 0 12.5714 0.517783 12.5714 1.15625V2.3125H14.2857C15.2321 2.3125 16 3.08899 16 4.04688V5.78125H0V4.04688C0 3.08899 0.7675 2.3125 1.71429 2.3125H3.42857V1.15625C3.42857 0.517783 3.93929 0 4.57143 0C5.20357 0 5.71429 0.517783 5.71429 1.15625ZM0 6.9375H16V16.7656C16 17.7231 15.2321 18.5 14.2857 18.5H1.71429C0.7675 18.5 0 17.7231 0 16.7656V6.9375ZM2.28571 10.9844C2.28571 11.3023 2.54143 11.5625 2.85714 11.5625H4C4.31429 11.5625 4.57143 11.3023 4.57143 10.9844V9.82812C4.57143 9.51016 4.31429 9.25 4 9.25H2.85714C2.54143 9.25 2.28571 9.51016 2.28571 9.82812V10.9844ZM6.85714 10.9844C6.85714 11.3023 7.11429 11.5625 7.42857 11.5625H8.57143C8.88571 11.5625 9.14286 11.3023 9.14286 10.9844V9.82812C9.14286 9.51016 8.88571 9.25 8.57143 9.25H7.42857C7.11429 9.25 6.85714 9.51016 6.85714 9.82812V10.9844ZM12 9.25C11.6857 9.25 11.4286 9.51016 11.4286 9.82812V10.9844C11.4286 11.3023 11.6857 11.5625 12 11.5625H13.1429C13.4571 11.5625 13.7143 11.3023 13.7143 10.9844V9.82812C13.7143 9.51016 13.4571 9.25 13.1429 9.25H12ZM2.28571 15.6094C2.28571 15.9273 2.54143 16.1875 2.85714 16.1875H4C4.31429 16.1875 4.57143 15.9273 4.57143 15.6094V14.4531C4.57143 14.1352 4.31429 13.875 4 13.875H2.85714C2.54143 13.875 2.28571 14.1352 2.28571 14.4531V15.6094ZM7.42857 13.875C7.11429 13.875 6.85714 14.1352 6.85714 14.4531V15.6094C6.85714 15.9273 7.11429 16.1875 7.42857 16.1875H8.57143C8.88571 16.1875 9.14286 15.9273 9.14286 15.6094V14.4531C9.14286 14.1352 8.88571 13.875 8.57143 13.875H7.42857ZM11.4286 15.6094C11.4286 15.9273 11.6857 16.1875 12 16.1875H13.1429C13.4571 16.1875 13.7143 15.9273 13.7143 15.6094V14.4531C13.7143 14.1352 13.4571 13.875 13.1429 13.875H12C11.6857 13.875 11.4286 14.1352 11.4286 14.4531V15.6094Z" fill="#4CAF50"/>
</svg>
