<svg width="32" height="34" viewBox="0 0 32 34" fill="none" xmlns="http://www.w3.org/2000/svg">
<path fill-rule="evenodd" clip-rule="evenodd" d="M13.0518 0.873645C13.761 0.660898 14.5101 0.616888 15.2393 0.745128C15.9685 0.873367 16.6577 1.1703 17.2518 1.61224C17.8458 2.05417 18.3284 2.62886 18.6608 3.29043C18.9933 3.95201 19.1665 4.68214 19.1666 5.42256V28.5772C19.1665 29.3176 18.9933 30.0478 18.6608 30.7094C18.3284 31.3709 17.8458 31.9456 17.2518 32.3876C16.6577 32.8295 15.9685 33.1264 15.2393 33.2547C14.5101 33.3829 13.761 33.3389 13.0518 33.1261L3.55179 30.2761C2.57345 29.9827 1.71577 29.3816 1.10599 28.5622C0.496203 27.7428 0.166793 26.7486 0.166626 25.7272V8.27256C0.166793 7.25115 0.496203 6.257 1.10599 5.43758C1.71577 4.61816 2.57345 4.01713 3.55179 3.72364L13.0518 0.873645ZM20.75 4.33323C20.75 3.9133 20.9168 3.51057 21.2137 3.21364C21.5106 2.91671 21.9134 2.74989 22.3333 2.74989H27.0833C28.3431 2.74989 29.5513 3.25034 30.442 4.14114C31.3328 5.03194 31.8333 6.24012 31.8333 7.49989V9.08323C31.8333 9.50315 31.6665 9.90588 31.3695 10.2028C31.0726 10.4997 30.6699 10.6666 30.25 10.6666C29.83 10.6666 29.4273 10.4997 29.1304 10.2028C28.8334 9.90588 28.6666 9.50315 28.6666 9.08323V7.49989C28.6666 7.07997 28.4998 6.67724 28.2029 6.38031C27.9059 6.08338 27.5032 5.91656 27.0833 5.91656H22.3333C21.9134 5.91656 21.5106 5.74975 21.2137 5.45281C20.9168 5.15588 20.75 4.75315 20.75 4.33323ZM30.25 23.3332C30.6699 23.3332 31.0726 23.5 31.3695 23.797C31.6665 24.0939 31.8333 24.4966 31.8333 24.9166V26.4999C31.8333 27.7597 31.3328 28.9679 30.442 29.8587C29.5513 30.7495 28.3431 31.2499 27.0833 31.2499H22.3333C21.9134 31.2499 21.5106 31.0831 21.2137 30.7861C20.9168 30.4892 20.75 30.0865 20.75 29.6666C20.75 29.2466 20.9168 28.8439 21.2137 28.547C21.5106 28.25 21.9134 28.0832 22.3333 28.0832H27.0833C27.5032 28.0832 27.9059 27.9164 28.2029 27.6195C28.4998 27.3225 28.6666 26.9198 28.6666 26.4999V24.9166C28.6666 24.4966 28.8334 24.0939 29.1304 23.797C29.4273 23.5 29.83 23.3332 30.25 23.3332ZM11.25 15.4166C10.83 15.4166 10.4273 15.5834 10.1304 15.8803C9.83344 16.1772 9.66663 16.58 9.66663 16.9999C9.66663 17.4198 9.83344 17.8225 10.1304 18.1195C10.4273 18.4164 10.83 18.5832 11.25 18.5832H11.2515C11.6715 18.5832 12.0742 18.4164 12.3711 18.1195C12.6681 17.8225 12.8349 17.4198 12.8349 16.9999C12.8349 16.58 12.6681 16.1772 12.3711 15.8803C12.0742 15.5834 11.6715 15.4166 11.2515 15.4166H11.25Z" fill="#EC671C"/>
<path d="M22.3333 16.9999H30.2499M30.2499 16.9999L27.0833 13.8333M30.2499 16.9999L27.0833 20.1666" stroke="#EC671C" stroke-width="2" stroke-linecap="round" stroke-linejoin="round"/>
</svg>
