<svg width="16" height="13" viewBox="0 0 16 13" fill="none" xmlns="http://www.w3.org/2000/svg">
<path d="M13.375 0.275845C13.61 0.0415195 13.99 0.0415195 14.2025 0.27582L15.8025 1.87559C15.9375 1.98809 16 2.14084 16 2.29984C16 2.45909 15.9375 2.61259 15.8025 2.70259L14.2025 4.30259C13.99 4.55759 13.61 4.55759 13.375 4.30259C13.1425 4.09009 13.1425 3.71009 13.375 3.47509L13.9525 2.87759H9.6C9.2675 2.87759 9 2.63009 9 2.29984C9 1.96859 9.2675 1.69984 9.6 1.69984L13.9525 1.67759L13.375 1.12434C13.1425 0.890095 13.1425 0.510095 13.375 0.275845ZM2.6025 9.50259L2.0485 10.1001L6.3775 10.0776C6.7325 10.0776 6.9775 10.3676 6.9775 10.6776C6.9775 11.0301 6.7325 11.2776 6.3775 11.2776L2.04875 11.3001L2.6025 11.8751C2.8575 12.1101 2.8575 12.4901 2.6025 12.7026C2.39 12.9576 2.01 12.9576 1.77575 12.7026L0.175725 11.1026C0.0632 11.0126 -2.49926e-05 10.8601 7.41118e-09 10.6776C7.41118e-09 10.5401 0.063225 10.3876 0.17575 10.2751L1.77575 8.67509C2.01 8.44259 2.39 8.44259 2.6025 8.67509C2.8575 8.91009 2.8575 9.2901 2.6025 9.50259ZM2.3775 1.70009H8.4475C8.3525 1.87959 8.3 2.08359 8.3 2.27759C8.3 3.01759 8.8825 3.57759 9.6 3.57759H12.0275C12.11 4.03759 12.3725 4.41259 12.735 4.64759C12.7775 4.70759 12.8275 4.76509 12.88 4.82009C13.3875 5.32759 14.2125 5.32759 14.72 4.82009L15.2 4.33759V9.7001C15.2 10.5826 14.4825 11.3001 13.6 11.3001H7.5525C7.6475 11.1201 7.6775 10.9176 7.6775 10.6776C7.6775 9.98259 7.1175 9.37759 6.3775 9.37759L3.9725 9.40009C3.8875 8.96259 3.6275 8.58759 3.265 8.3526C3.2225 8.29259 3.1725 8.2351 3.12 8.18009C2.6125 7.6726 1.7885 7.6726 1.28075 8.18009L0.7775 8.66259V3.30009C0.7775 2.41634 1.51625 1.70009 2.3775 1.70009ZM2.3775 4.90009C3.2825 4.90009 3.9775 4.18259 3.9775 3.30009H2.3775V4.90009ZM13.6 9.7001V8.10009C12.7175 8.10009 12 8.81759 12 9.7001H13.6ZM7.9775 8.90009C9.325 8.90009 10.4 7.82509 10.4 6.50009C10.4 5.15259 9.325 4.10009 7.9775 4.10009C6.6525 4.10009 5.5775 5.15259 5.5775 6.50009C5.5775 7.82509 6.6525 8.90009 7.9775 8.90009Z" fill="#4CAF50"/>
</svg>
