<svg width="20" height="32" viewBox="0 0 20 32" fill="none" xmlns="http://www.w3.org/2000/svg">
<path d="M10 7.29174C9.22417 7.29174 8.537 7.65907 8.09842 8.24332C7.53089 8.99898 6.68642 9.49824 5.75078 9.63126C4.81515 9.76429 3.86499 9.52019 3.10933 8.95266C2.35368 8.38513 1.85442 7.54066 1.72139 6.60502C1.58837 5.66939 1.83247 4.71923 2.4 3.96357C3.59649 2.36825 5.26467 1.18989 7.16816 0.59546C9.07166 0.00102626 11.114 0.0206615 13.0057 0.651584C14.8974 1.28251 16.5426 2.49272 17.7082 4.11075C18.8738 5.72879 19.5007 7.67259 19.5 9.66674V28.6667C19.5 29.5066 19.1664 30.312 18.5725 30.9059C17.9786 31.4998 17.1732 31.8334 16.3333 31.8334H3.66667C2.82681 31.8334 2.02136 31.4998 1.4275 30.9059C0.83363 30.312 0.5 29.5066 0.5 28.6667V15.2084C0.5 14.3686 0.83363 13.5631 1.4275 12.9692C2.02136 12.3754 2.82681 12.0417 3.66667 12.0417H10C10.6299 12.0417 11.234 11.7915 11.6794 11.3461C12.1248 10.9007 12.375 10.2966 12.375 9.66674C12.375 9.03685 12.1248 8.43276 11.6794 7.98736C11.234 7.54196 10.6299 7.29174 10 7.29174ZM6.4375 24.7084C6.12256 24.7084 5.82051 24.8335 5.59781 25.0562C5.37511 25.2789 5.25 25.581 5.25 25.8959C5.25 26.2109 5.37511 26.5129 5.59781 26.7356C5.82051 26.9583 6.12256 27.0834 6.4375 27.0834H13.5625C13.8774 27.0834 14.1795 26.9583 14.4022 26.7356C14.6249 26.5129 14.75 26.2109 14.75 25.8959C14.75 25.581 14.6249 25.2789 14.4022 25.0562C14.1795 24.8335 13.8774 24.7084 13.5625 24.7084H6.4375Z" fill="#59C3FF"/>
</svg>
