<svg width="32" height="28" viewBox="0 0 32 28" fill="none" xmlns="http://www.w3.org/2000/svg">
<path d="M27.4792 11.4166C28.588 11.4165 29.655 11.8395 30.4627 12.5992C31.2703 13.3588 31.7577 14.398 31.8254 15.5048L31.8334 15.7708V26.0624C31.8333 26.3633 31.719 26.6529 31.5136 26.8728C31.3082 27.0926 31.027 27.2263 30.7268 27.2468C30.4266 27.2673 30.1299 27.1731 29.8965 26.9832C29.6631 26.7934 29.5104 26.522 29.4694 26.2239L29.4584 26.0624V22.4999H2.54169V26.0624C2.54167 26.3494 2.43775 26.6266 2.24914 26.8429C2.06053 27.0592 1.79998 27.1998 1.51569 27.2388L1.35419 27.2499C1.06723 27.2499 0.789979 27.146 0.573713 26.9574C0.357448 26.7688 0.216797 26.5082 0.17777 26.2239L0.166687 26.0624V15.7708C0.166632 14.662 0.589583 13.5949 1.34927 12.7873C2.10895 11.9796 3.14814 11.4922 4.25485 11.4245L4.52085 11.4166H27.4792ZM7.68752 0.333252H24.3125C25.4213 0.333197 26.4883 0.756148 27.296 1.51583C28.1036 2.27552 28.591 3.3147 28.6588 4.42142L28.6667 4.68742V9.83325H23.9167L23.9056 9.648C23.8639 9.29458 23.7044 8.9655 23.4528 8.71385C23.2011 8.46221 22.872 8.30268 22.5186 8.261L22.3334 8.24992H19.1667C18.7789 8.24997 18.4046 8.39235 18.1148 8.65005C17.825 8.90775 17.6398 9.26285 17.5944 9.648L17.5834 9.83325H14.4167L14.4056 9.648C14.3639 9.29458 14.2044 8.9655 13.9528 8.71385C13.7011 8.46221 13.372 8.30268 13.0186 8.261L12.8334 8.24992H9.66669C9.27888 8.24997 8.90457 8.39235 8.61476 8.65005C8.32496 8.90775 8.13981 9.26285 8.09444 9.648L8.08335 9.83325H3.33335V4.68742C3.3333 3.57863 3.75625 2.51159 4.51593 1.70395C5.27562 0.896305 6.3148 0.408906 7.42152 0.341169L7.68752 0.333252Z" fill="#6C6C6C"/>
</svg>
