<svg width="18" height="20" viewBox="0 0 18 20" fill="none" xmlns="http://www.w3.org/2000/svg">
<path d="M17.4066 14.347C16.3354 13.1864 15.0354 12.2601 13.5885 11.6266C12.1417 10.9931 10.5794 10.666 8.99992 10.666C7.42046 10.666 5.85812 10.9931 4.41129 11.6266C2.96446 12.2601 1.66449 13.1864 0.593252 14.347C0.427863 14.5299 0.335347 14.7672 0.333252 15.0137V19.0137C0.336758 19.2766 0.44366 19.5276 0.630818 19.7122C0.817976 19.8969 1.07033 20.0004 1.33325 20.0004H16.6666C16.9318 20.0004 17.1862 19.895 17.3737 19.7075C17.5612 19.52 17.6666 19.2656 17.6666 19.0004V15.0004C17.6613 14.7584 17.569 14.5265 17.4066 14.347Z" fill="#4CAF50"/>
<path d="M8.99992 9.33333C11.5772 9.33333 13.6666 7.244 13.6666 4.66667C13.6666 2.08934 11.5772 0 8.99992 0C6.42259 0 4.33325 2.08934 4.33325 4.66667C4.33325 7.244 6.42259 9.33333 8.99992 9.33333Z" fill="#4CAF50"/>
</svg>
