<svg width="16" height="16" viewBox="0 0 16 16" fill="none" xmlns="http://www.w3.org/2000/svg">
<path d="M10.8192 4.55485L15.1729 5.19715C15.5334 5.24865 15.8364 5.50315 15.9515 5.85156C16.0667 6.20301 15.9727 6.58475 15.7122 6.8453L12.5552 9.94166L13.3005 14.3832C13.3611 14.7468 13.2127 15.1164 12.9097 15.3315C12.6098 15.5466 12.2129 15.5739 11.8887 15.4012L7.99856 13.3258L4.11146 15.4012C3.78425 15.5739 3.38736 15.5466 3.08742 15.3315C2.78748 15.1164 2.63599 14.7468 2.69962 14.3832L3.44492 9.94166L0.287369 6.8453C0.0265114 6.58475 -0.0661975 6.20301 0.0483252 5.85156C0.162545 5.50315 0.464606 5.24865 0.827867 5.19715L5.17791 4.55485L7.12904 0.545649C7.28961 0.211897 7.62894 0 7.99856 0C8.37121 0 8.71054 0.211897 8.87111 0.545649L10.8192 4.55485Z" fill="#FFC702"/>
</svg>
