<svg width="56" height="45" viewBox="0 0 56 45" fill="none" xmlns="http://www.w3.org/2000/svg">
<path d="M46.8125 0.61548C47.635 -0.204657 48.965 -0.204657 49.7087 0.615393L55.3087 6.21461C55.7812 6.60836 56 7.14298 56 7.69948C56 8.25686 55.7812 8.79411 55.3087 9.10911L49.7087 14.7091C48.965 15.6016 47.635 15.6016 46.8125 14.7091C45.9987 13.9654 45.9987 12.6354 46.8125 11.8129L48.8337 9.72161H33.6C32.4362 9.72161 31.5 8.85536 31.5 7.69948C31.5 6.54011 32.4362 5.59948 33.6 5.59948L48.8337 5.5216L46.8125 3.58523C45.9987 2.76536 45.9987 1.43536 46.8125 0.61548V0.61548ZM9.10875 32.9091L7.16975 35.0004L22.3213 34.9216C23.5638 34.9216 24.4213 35.9366 24.4213 37.0216C24.4213 38.2554 23.5638 39.1216 22.3213 39.1216L7.17062 39.2004L9.10875 41.2129C10.0012 42.0354 10.0012 43.3654 9.10875 44.1091C8.365 45.0016 7.035 45.0016 6.21512 44.1091L0.615038 38.5091C0.2212 38.1941 -8.74741e-05 37.6604 2.59391e-08 37.0216C2.59391e-08 36.5404 0.221288 36.0066 0.615125 35.6129L6.21512 30.0129C7.035 29.1991 8.365 29.1991 9.10875 30.0129C10.0012 30.8354 10.0012 32.1654 9.10875 32.9091V32.9091ZM8.32125 5.60036H29.5662C29.2337 6.22861 29.05 6.94261 29.05 7.62161C29.05 10.2116 31.0887 12.1716 33.6 12.1716H42.0962C42.385 13.7816 43.3037 15.0941 44.5725 15.9166C44.7212 16.1266 44.8963 16.3279 45.08 16.5204C46.8563 18.2966 49.7437 18.2966 51.52 16.5204L53.2 14.8316V33.6004C53.2 36.6891 50.6887 39.2004 47.6 39.2004H26.4338C26.7663 38.5704 26.8713 37.8616 26.8713 37.0216C26.8713 34.5891 24.9113 32.4716 22.3213 32.4716L13.9037 32.5504C13.6062 31.0191 12.6963 29.7066 11.4275 28.8841C11.2788 28.6741 11.1038 28.4729 10.92 28.2804C9.14375 26.5041 6.25975 26.5041 4.48262 28.2804L2.72125 29.9691V11.2004C2.72125 8.10723 5.30687 5.60036 8.32125 5.60036ZM8.32125 16.8004C11.4887 16.8004 13.9213 14.2891 13.9213 11.2004H8.32125V16.8004ZM47.6 33.6004V28.0004C44.5112 28.0004 42 30.5116 42 33.6004H47.6ZM27.9213 30.8004C32.6375 30.8004 36.4 27.0379 36.4 22.4004C36.4 17.6841 32.6375 14.0004 27.9213 14.0004C23.2838 14.0004 19.5213 17.6841 19.5213 22.4004C19.5213 27.0379 23.2838 30.8004 27.9213 30.8004Z" fill="#EC671C"/>
</svg>
