<svg width="48" height="39" viewBox="0 0 48 39" fill="none" xmlns="http://www.w3.org/2000/svg">
<path d="M38 24V31M38 38V31M38 31H31M38 31H45" stroke="#4CAF50" stroke-width="2" stroke-linecap="round" stroke-linejoin="round"/>
<path fill-rule="evenodd" clip-rule="evenodd" d="M7.66669 0.666626C5.81017 0.666626 4.02969 1.40412 2.71694 2.71688C1.40419 4.02963 0.666687 5.81011 0.666687 7.66663V26.3333C0.666687 28.1898 1.40419 29.9703 2.71694 31.283C4.02969 32.5958 5.81017 33.3333 7.66669 33.3333H24.1937C24.0645 32.5622 23.9997 31.7818 24 31C24 28.3213 24.7514 25.82 26.0557 23.6943C25.0086 24.0155 23.9008 24.0865 22.8212 23.9018C21.7417 23.717 20.7205 23.2817 19.8398 22.6306C18.9591 21.9795 18.2434 21.131 17.7502 20.1531C17.257 19.1752 17 18.0952 17 17C17.0014 15.9937 17.2198 14.9995 17.6402 14.0853C18.0605 13.171 18.6731 12.3582 19.4361 11.7021C20.1991 11.046 21.0946 10.5622 22.0615 10.2835C23.0284 10.0048 24.044 9.93788 25.0391 10.0873C26.0343 10.2366 26.9855 10.5988 27.828 11.1491C28.6705 11.6994 29.3844 12.4248 29.9211 13.276C30.4579 14.1272 30.8048 15.0841 30.9382 16.0815C31.0716 17.0789 30.9885 18.0933 30.6944 19.0556C32.8925 17.7077 35.4215 16.9961 38 17C41.5864 17 44.8577 18.3486 47.3334 20.5653V7.66663C47.3334 5.81011 46.5959 4.02963 45.2831 2.71688C43.9704 1.40412 42.1899 0.666626 40.3334 0.666626H7.66669ZM24 14.6666C23.3812 14.6666 22.7877 14.9125 22.3501 15.35C21.9125 15.7876 21.6667 16.3811 21.6667 17C21.6667 17.6188 21.9125 18.2123 22.3501 18.6499C22.7877 19.0875 23.3812 19.3333 24 19.3333C24.6189 19.3333 25.2124 19.0875 25.6499 18.6499C26.0875 18.2123 26.3334 17.6188 26.3334 17C26.3334 16.3811 26.0875 15.7876 25.6499 15.35C25.2124 14.9125 24.6189 14.6666 24 14.6666Z" fill="#4CAF50"/>
</svg>
