<svg width="24" height="18" viewBox="0 0 24 18" fill="none" xmlns="http://www.w3.org/2000/svg">
<path d="M3.75 17.25C3.75 17.0511 3.82902 16.8603 3.96967 16.7197C4.11032 16.579 4.30109 16.5 4.5 16.5H19.5C19.6989 16.5 19.8897 16.579 20.0303 16.7197C20.171 16.8603 20.25 17.0511 20.25 17.25C20.25 17.4489 20.171 17.6397 20.0303 17.7803C19.8897 17.921 19.6989 18 19.5 18H4.5C4.30109 18 4.11032 17.921 3.96967 17.7803C3.82902 17.6397 3.75 17.4489 3.75 17.25ZM3 0H21C21 0 24 0 24 3V12C24 12 24 15 21 15H3C3 15 0 15 0 12V3C0 3 0 0 3 0Z" fill="#333443"/>
</svg>
