<svg width="20" height="16" viewBox="0 0 20 16" fill="none" xmlns="http://www.w3.org/2000/svg">
<path d="M15.7841 6.70809C16.39 7.32132 16.8973 8.02465 17.2881 8.79309C17.3995 9.02808 17.4151 9.29726 17.3314 9.54352C17.2477 9.78978 17.0714 9.99375 16.8398 10.1121C16.6082 10.2305 16.3396 10.254 16.091 10.1777C15.8423 10.1013 15.6332 9.93108 15.5081 9.70309C15.2121 9.1211 14.8283 8.58819 14.3701 8.12309C13.6855 7.4383 12.8484 6.92546 11.9274 6.62661C11.0064 6.32776 10.0277 6.25141 9.07154 6.40382C8.11534 6.55623 7.20887 6.93305 6.42641 7.50341C5.64395 8.07376 5.00779 8.82142 4.57005 9.68509C4.4469 9.91567 4.23835 10.0889 3.98907 10.1676C3.73979 10.2463 3.46961 10.2242 3.23638 10.1062C3.00314 9.98813 2.82541 9.78344 2.74124 9.53596C2.65707 9.28847 2.67316 9.01787 2.78605 8.78209C3.36646 7.63646 4.21008 6.64466 5.24777 5.88799C6.28546 5.13132 7.48769 4.63131 8.75592 4.42895C10.0241 4.22659 11.3223 4.32763 12.5439 4.72379C13.7656 5.11996 14.8759 5.79997 15.7841 6.70809ZM13.7351 9.70009C14.1951 10.1601 14.5731 10.7241 14.8371 11.3241C14.9435 11.567 14.9492 11.8423 14.8527 12.0894C14.7562 12.3365 14.5655 12.5351 14.3226 12.6416C14.0796 12.7481 13.8043 12.7537 13.5572 12.6572C13.3102 12.5607 13.1115 12.37 13.0051 12.1271C12.8409 11.7504 12.6091 11.4071 12.3211 11.1141C11.7148 10.5078 10.8925 10.1672 10.0351 10.1672C9.17764 10.1672 8.35535 10.5078 7.74905 11.1141C7.46481 11.4027 7.23691 11.7419 7.07705 12.1141C7.02544 12.2359 6.95015 12.3463 6.85556 12.4389C6.76097 12.5314 6.64895 12.6043 6.526 12.6532C6.40305 12.7021 6.27162 12.7261 6.13931 12.7239C6.007 12.7217 5.87645 12.6932 5.75523 12.6401C5.63401 12.587 5.52452 12.5104 5.43312 12.4148C5.34172 12.3191 5.27022 12.2062 5.22277 12.0827C5.17531 11.9591 5.15285 11.8274 5.15667 11.6951C5.1605 11.5629 5.19054 11.4327 5.24505 11.3121C5.50476 10.7115 5.87444 10.1648 6.33505 9.70009C7.31641 8.71889 8.64732 8.16767 10.0351 8.16767C11.4228 8.16767 12.7537 8.71889 13.7351 9.70009ZM18.4191 4.29909C18.9271 4.80709 19.4061 5.38609 19.8231 5.99009C19.9715 6.20842 20.0276 6.4766 19.9791 6.73614C19.9306 6.99568 19.7815 7.2255 19.5642 7.37547C19.3469 7.52544 19.0791 7.58339 18.8192 7.53667C18.5594 7.48995 18.3285 7.34236 18.1771 7.12609C17.8271 6.62009 17.4251 6.13309 17.0051 5.71309C13.1331 1.84109 6.85505 1.84109 2.98205 5.71309C2.58305 6.11209 2.18505 6.59909 1.82205 7.12309C1.67088 7.3411 1.43929 7.49013 1.17824 7.53739C0.917192 7.58465 0.64806 7.52627 0.430052 7.37509C0.212044 7.22392 0.0630185 6.99234 0.0157594 6.73128C-0.0314998 6.47023 0.0268787 6.2011 0.178052 5.98309C0.606052 5.36509 1.07905 4.78809 1.56805 4.29909C6.22105 -0.354906 13.7661 -0.354906 18.4191 4.29909ZM11.0621 12.4411C11.3436 12.7226 11.5017 13.1045 11.5017 13.5026C11.5017 13.9007 11.3436 14.2826 11.0621 14.5641C10.7805 14.8456 10.3987 15.0038 10.0006 15.0038C9.60241 15.0038 9.22058 14.8456 8.93905 14.5641C8.65753 14.2826 8.49936 13.9007 8.49936 13.5026C8.49936 13.1045 8.65753 12.7226 8.93905 12.4411C9.22058 12.1596 9.60241 12.0014 10.0006 12.0014C10.3987 12.0014 10.7805 12.1596 11.0621 12.4411Z" fill="#333443"/>
</svg>
