<svg width="116" height="85" viewBox="0 0 116 85" fill="none" xmlns="http://www.w3.org/2000/svg">
<rect x="14.619" width="13.0952" height="51.8571" rx="2.61905" fill="#D9D9D9"/>
<rect x="114.667" y="25.6665" width="13.0952" height="113.667" rx="2.61905" transform="rotate(90 114.667 25.6665)" fill="#D9D9D9"/>
<rect x="87.4286" width="13.0952" height="51.8571" rx="2.61905" fill="#D9D9D9"/>
<path d="M4.82481 63.9105C4.82481 63.5784 4.93803 63.2991 5.16449 63.0726C5.40604 62.8462 5.68533 62.7329 6.00236 62.7329H25.115C25.2358 62.7329 25.3339 62.7707 25.4094 62.8462C25.4849 62.9217 25.5226 63.0122 25.5226 63.1179V64.0237C25.5226 64.3559 25.4019 64.6351 25.1603 64.8616C24.9339 65.0881 24.6621 65.2013 24.3451 65.2013H16.5098C16.389 65.2013 16.3286 65.2692 16.3286 65.4051V73.965C16.3286 74.2821 16.2079 74.5613 15.9663 74.8029C15.7399 75.0294 15.4606 75.1426 15.1284 75.1426H14.4264C14.3509 75.1426 14.283 75.1275 14.2226 75.0973C14.1622 75.052 14.1094 74.9992 14.0641 74.9388C14.0339 74.8784 14.0188 74.818 14.0188 74.7576V65.4051C14.0188 65.2692 13.9509 65.2013 13.815 65.2013H5.20978C5.14939 65.2013 5.089 65.1862 5.02862 65.156C4.96823 65.1258 4.91539 65.0805 4.8701 65.0201C4.8399 64.9597 4.82481 64.8918 4.82481 64.8163V63.9105ZM50.9353 63.9105C50.9353 63.5784 51.0485 63.2991 51.275 63.0726C51.5165 62.8462 51.8034 62.7329 52.1355 62.7329H52.8375C52.8979 62.7329 52.9507 62.7405 52.996 62.7556C53.0413 62.7707 53.079 62.8009 53.1092 62.8462C53.1545 62.8764 53.1847 62.9141 53.1998 62.9594C53.23 63.0047 53.2451 63.0575 53.2451 63.1179V73.965C53.2451 74.2821 53.1243 74.5613 52.8828 74.8029C52.6563 75.0294 52.3846 75.1426 52.0675 75.1426H51.3429C51.2372 75.1426 51.1391 75.1048 51.0485 75.0294C50.973 74.9539 50.9353 74.8633 50.9353 74.7576V70.3644C50.9353 70.2436 50.8749 70.1833 50.7541 70.1833H35.0383C34.9175 70.1833 34.8571 70.2436 34.8571 70.3644V73.965C34.8571 74.2821 34.7363 74.5613 34.4948 74.8029C34.2683 75.0294 33.989 75.1426 33.6569 75.1426H32.9323C32.8266 75.1426 32.736 75.1048 32.6605 75.0294C32.585 74.9539 32.5473 74.8633 32.5473 74.7576V63.9105C32.5473 63.5784 32.6605 63.2991 32.887 63.0726C33.1285 62.8462 33.4078 62.7329 33.7248 62.7329H34.4495C34.5552 62.7329 34.6457 62.7707 34.7212 62.8462C34.8118 62.9217 34.8571 63.0122 34.8571 63.1179V67.4885C34.8571 67.6243 34.9175 67.6923 35.0383 67.6923H50.7541C50.8749 67.6923 50.9353 67.6243 50.9353 67.4885V63.9105ZM67.3397 69.9794C67.0378 69.9794 66.7736 69.8738 66.5471 69.6624C66.3357 69.436 66.2301 69.1718 66.2301 68.8698C66.2301 68.5528 66.3433 68.281 66.5698 68.0546C66.8113 67.813 67.0906 67.6923 67.4076 67.6923H79.6361C79.7418 67.6923 79.8324 67.73 79.9078 67.8055C79.9833 67.881 80.0211 67.9716 80.0211 68.0772V68.8019C80.0211 69.1189 79.9078 69.3982 79.6814 69.6398C79.4549 69.8662 79.1756 69.9794 78.8435 69.9794H67.3397ZM81.1533 65.2013H67.3623C66.4112 65.2013 65.6036 65.541 64.9393 66.2203C64.275 66.8846 63.9429 67.6923 63.9429 68.6434V69.2321C63.9429 70.1682 64.275 70.9758 64.9393 71.6552C65.6036 72.3195 66.4112 72.6516 67.3623 72.6516H81.1533C81.3043 72.6516 81.4553 72.6893 81.6062 72.7648C81.7572 72.8252 81.8855 72.9082 81.9912 73.0139C82.0969 73.1196 82.1799 73.2479 82.2403 73.3989C82.3007 73.5348 82.3309 73.6857 82.3309 73.8518V74.7576C82.3309 74.8633 82.2932 74.9539 82.2177 75.0294C82.1422 75.1048 82.0441 75.1426 81.9233 75.1426H67.5661C65.9206 75.1426 64.5166 74.5689 63.3541 73.4215C62.2068 72.2591 61.6331 70.8551 61.6331 69.2095V68.6434C61.6331 67.0129 62.2068 65.624 63.3541 64.4766C64.5166 63.3142 65.9206 62.7329 67.5661 62.7329H81.9233C82.0441 62.7329 82.1422 62.7707 82.2177 62.8462C82.2932 62.9217 82.3309 63.0122 82.3309 63.1179V64.0237C82.3309 64.3559 82.2101 64.6351 81.9686 64.8616C81.7421 65.0881 81.4704 65.2013 81.1533 65.2013ZM89.6965 68.6434C89.6965 67.0129 90.2701 65.624 91.4175 64.4766C92.58 63.3142 93.984 62.7329 95.6295 62.7329H104.461C105.533 62.7329 106.522 62.9971 107.428 63.5255C108.349 64.0539 109.073 64.771 109.602 65.6768C110.13 66.5826 110.394 67.5715 110.394 68.6434V69.2095C110.394 70.8551 109.813 72.2591 108.651 73.4215C107.503 74.5689 106.107 75.1426 104.461 75.1426H95.6295C93.984 75.1426 92.58 74.5689 91.4175 73.4215C90.2701 72.2591 89.6965 70.8551 89.6965 69.2095V68.6434ZM104.665 72.6516C105.601 72.6516 106.401 72.3195 107.065 71.6552C107.745 70.9758 108.084 70.1682 108.084 69.2321V68.6434C108.084 67.6923 107.745 66.8846 107.065 66.2203C106.401 65.541 105.601 65.2013 104.665 65.2013H95.4257C94.4746 65.2013 93.6669 65.541 93.0027 66.2203C92.3384 66.8846 92.0063 67.6923 92.0063 68.6434V69.2321C92.0063 70.1682 92.3384 70.9758 93.0027 71.6552C93.6669 72.3195 94.4746 72.6516 95.4257 72.6516H104.665Z" fill="white"/>
</svg>
