<svg width="221" height="161" viewBox="0 0 221 161" fill="none" xmlns="http://www.w3.org/2000/svg">
<rect x="28" width="25" height="99" rx="5" fill="#D9D9D9"/>
<rect x="219" y="49" width="25" height="217" rx="5" transform="rotate(90 219 49)" fill="#D9D9D9"/>
<rect x="167" width="25" height="99" rx="5" fill="#D9D9D9"/>
<path d="M8.98372 122.557C8.98372 121.923 9.19988 121.39 9.6322 120.957C10.0933 120.525 10.6265 120.309 11.2318 120.309H47.7196C47.9501 120.309 48.1375 120.381 48.2816 120.525C48.4257 120.669 48.4977 120.842 48.4977 121.044V122.773C48.4977 123.407 48.2672 123.94 47.806 124.373C47.3737 124.805 46.8549 125.021 46.2497 125.021H31.2914C31.0608 125.021 30.9456 125.151 30.9456 125.41V141.752C30.9456 142.357 30.715 142.89 30.2539 143.352C29.8215 143.784 29.2883 144 28.6543 144H27.3141C27.17 144 27.0403 143.971 26.925 143.914C26.8097 143.827 26.7088 143.726 26.6224 143.611C26.5647 143.496 26.5359 143.38 26.5359 143.265V125.41C26.5359 125.151 26.4062 125.021 26.1468 125.021H9.71866C9.60338 125.021 9.48809 124.992 9.37281 124.935C9.25752 124.877 9.15665 124.791 9.07018 124.675C9.01254 124.56 8.98372 124.43 8.98372 124.286V122.557ZM97.0128 122.557C97.0128 121.923 97.229 121.39 97.6613 120.957C98.1224 120.525 98.67 120.309 99.3041 120.309H100.644C100.76 120.309 100.86 120.323 100.947 120.352C101.033 120.381 101.105 120.439 101.163 120.525C101.25 120.583 101.307 120.655 101.336 120.741C101.394 120.828 101.422 120.929 101.422 121.044V141.752C101.422 142.357 101.192 142.89 100.731 143.352C100.298 143.784 99.7796 144 99.1744 144H97.791C97.5892 144 97.4019 143.928 97.229 143.784C97.0849 143.64 97.0128 143.467 97.0128 143.265V134.878C97.0128 134.647 96.8975 134.532 96.6669 134.532H66.664C66.4334 134.532 66.3181 134.647 66.3181 134.878V141.752C66.3181 142.357 66.0875 142.89 65.6264 143.352C65.1941 143.784 64.6609 144 64.0268 144H62.6434C62.4416 144 62.2687 143.928 62.1246 143.784C61.9805 143.64 61.9084 143.467 61.9084 143.265V122.557C61.9084 121.923 62.1246 121.39 62.5569 120.957C63.0181 120.525 63.5513 120.309 64.1565 120.309H65.5399C65.7417 120.309 65.9146 120.381 66.0587 120.525C66.2316 120.669 66.3181 120.842 66.3181 121.044V129.388C66.3181 129.647 66.4334 129.777 66.664 129.777H96.6669C96.8975 129.777 97.0128 129.647 97.0128 129.388V122.557ZM128.33 134.143C127.754 134.143 127.25 133.941 126.817 133.538C126.414 133.106 126.212 132.601 126.212 132.025C126.212 131.419 126.428 130.901 126.86 130.468C127.322 130.007 127.855 129.777 128.46 129.777H151.805C152.007 129.777 152.18 129.849 152.324 129.993C152.468 130.137 152.54 130.31 152.54 130.512V131.895C152.54 132.5 152.324 133.033 151.892 133.495C151.459 133.927 150.926 134.143 150.292 134.143H128.33ZM154.702 125.021H128.374C126.558 125.021 125.016 125.67 123.748 126.967C122.48 128.235 121.846 129.777 121.846 131.592V132.716C121.846 134.503 122.48 136.045 123.748 137.342C125.016 138.61 126.558 139.244 128.374 139.244H154.702C154.99 139.244 155.278 139.317 155.566 139.461C155.855 139.576 156.1 139.734 156.301 139.936C156.503 140.138 156.662 140.383 156.777 140.671C156.892 140.931 156.95 141.219 156.95 141.536V143.265C156.95 143.467 156.878 143.64 156.734 143.784C156.59 143.928 156.402 144 156.172 144H128.763C125.621 144 122.941 142.905 120.721 140.714C118.531 138.495 117.436 135.815 117.436 132.673V131.592C117.436 128.48 118.531 125.828 120.721 123.638C122.941 121.418 125.621 120.309 128.763 120.309H156.172C156.402 120.309 156.59 120.381 156.734 120.525C156.878 120.669 156.95 120.842 156.95 121.044V122.773C156.95 123.407 156.719 123.94 156.258 124.373C155.826 124.805 155.307 125.021 154.702 125.021ZM171.011 131.592C171.011 128.48 172.107 125.828 174.297 123.638C176.516 121.418 179.197 120.309 182.338 120.309H199.199C201.245 120.309 203.133 120.813 204.862 121.822C206.62 122.831 208.004 124.2 209.012 125.929C210.021 127.658 210.525 129.546 210.525 131.592V132.673C210.525 135.815 209.416 138.495 207.197 140.714C205.006 142.905 202.34 144 199.199 144H182.338C179.197 144 176.516 142.905 174.297 140.714C172.107 138.495 171.011 135.815 171.011 132.673V131.592ZM199.588 139.244C201.375 139.244 202.902 138.61 204.17 137.342C205.467 136.045 206.116 134.503 206.116 132.716V131.592C206.116 129.777 205.467 128.235 204.17 126.967C202.902 125.67 201.375 125.021 199.588 125.021H181.949C180.133 125.021 178.591 125.67 177.323 126.967C176.055 128.235 175.421 129.777 175.421 131.592V132.716C175.421 134.503 176.055 136.045 177.323 137.342C178.591 138.61 180.133 139.244 181.949 139.244H199.588Z" fill="white"/>
</svg>
