<svg width="112" height="112" viewBox="0 0 112 112" fill="none" xmlns="http://www.w3.org/2000/svg">
<path d="M28 21H70V28H28V21ZM28 35H70V42H28V35ZM28 49H49V56H28V49ZM28 84H42V91H28V84Z" fill="#D9D9D9"/>
<path d="M103.975 67.5255L93.4745 57.0255C92.8182 56.3694 91.9281 56.0007 91 56.0007C90.0719 56.0007 89.1818 56.3694 88.5255 57.0255L56 89.551V105H71.449L103.975 72.4745C104.631 71.8182 104.999 70.9281 104.999 70C104.999 69.0719 104.631 68.1818 103.975 67.5255ZM68.551 98H63V92.449L80.5 74.949L86.051 80.5L68.551 98ZM91 75.551L85.449 70L91 64.449L96.551 70L91 75.551ZM42 105H21C19.1441 104.998 17.3647 104.26 16.0523 102.948C14.7399 101.635 14.0019 99.8559 14 98V14C14.0019 12.1441 14.7399 10.3647 16.0523 9.0523C17.3647 7.73995 19.1441 7.00185 21 7H77C78.8559 7.00185 80.6354 7.73995 81.9477 9.0523C83.2601 10.3647 83.9981 12.1441 84 14V49H77V14H21V98H42V105Z" fill="#D9D9D9"/>
</svg>
