<svg width="24" height="21" viewBox="0 0 24 21" fill="none" xmlns="http://www.w3.org/2000/svg">
<path d="M16.5123 3.41315L20.2117 7.11263C20.3676 7.26848 20.3676 7.52277 20.2117 7.67862L11.2543 16.6361L7.44816 17.0585C6.93959 17.116 6.50894 16.6853 6.56636 16.1767L6.9888 12.3706L15.9463 3.41315C16.1021 3.2573 16.3564 3.2573 16.5123 3.41315ZM23.1566 2.47393L21.1551 0.472444C20.5317 -0.150971 19.5186 -0.150971 18.8911 0.472444L17.4392 1.92434C17.2833 2.0802 17.2833 2.33448 17.4392 2.49034L21.1387 6.18981C21.2945 6.34566 21.5488 6.34566 21.7047 6.18981L23.1566 4.73791C23.78 4.11039 23.78 3.09735 23.1566 2.47393ZM15.7494 14.1999V18.3751H2.6249V5.25059H12.0499C12.1812 5.25059 12.3042 5.19727 12.3986 5.10704L14.0391 3.46647C14.3508 3.15477 14.1294 2.62568 13.6905 2.62568H1.96868C0.881803 2.62568 0 3.50749 0 4.59436V19.0313C0 20.1182 0.881803 21 1.96868 21H16.4056C17.4925 21 18.3743 20.1182 18.3743 19.0313V12.5593C18.3743 12.1204 17.8452 11.9031 17.5335 12.2107L15.893 13.8512C15.8027 13.9456 15.7494 14.0686 15.7494 14.1999Z" fill="#333443"/>
</svg>
