<svg width="14" height="13" viewBox="0 0 14 13" fill="none" xmlns="http://www.w3.org/2000/svg">
<path d="M1.68701 2.0565C1.8113 1.60885 2.07886 1.21427 2.44874 0.933163C2.81862 0.652052 3.27043 0.4999 3.73501 0.5H10.265C10.7296 0.4999 11.1814 0.652052 11.5513 0.933163C11.9212 1.21427 12.1887 1.60885 12.313 2.0565L13.923 7.8505C14.292 9.1825 13.2905 10.5 11.908 10.5H2.09151C0.709007 10.5 -0.292493 9.1825 0.0775067 7.8505L1.68751 2.0565H1.68701ZM3.00001 11.5C2.8674 11.5 2.74022 11.5527 2.64645 11.6464C2.55269 11.7402 2.50001 11.8674 2.50001 12C2.50001 12.1326 2.55269 12.2598 2.64645 12.3536C2.74022 12.4473 2.8674 12.5 3.00001 12.5H11.001C11.1336 12.5 11.2608 12.4473 11.3546 12.3536C11.4483 12.2598 11.501 12.1326 11.501 12C11.501 11.8674 11.4483 11.7402 11.3546 11.6464C11.2608 11.5527 11.1336 11.5 11.001 11.5H2.99951H3.00001Z" fill="white"/>
</svg>
