<svg width="16" height="16" viewBox="0 0 16 16" fill="none" xmlns="http://www.w3.org/2000/svg">
<path fill-rule="evenodd" clip-rule="evenodd" d="M8.00002 0.666992C3.95002 0.666992 0.666687 3.95033 0.666687 8.00033C0.666687 12.0503 3.95002 15.3337 8.00002 15.3337C12.05 15.3337 15.3334 12.0503 15.3334 8.00033C15.3334 3.95033 12.05 0.666992 8.00002 0.666992ZM11.1787 6.76033C11.2372 6.69342 11.2818 6.61549 11.3097 6.5311C11.3377 6.44672 11.3485 6.3576 11.3415 6.26898C11.3345 6.18036 11.3099 6.09403 11.2691 6.01508C11.2282 5.93612 11.172 5.86613 11.1037 5.80922C11.0354 5.75231 10.9564 5.70963 10.8714 5.6837C10.7864 5.65777 10.697 5.6491 10.6086 5.65821C10.5202 5.66732 10.4345 5.69402 10.3565 5.73675C10.2786 5.77947 10.2099 5.83736 10.1547 5.90699L7.28802 9.34633L5.80469 7.86233C5.67895 7.74089 5.51055 7.67369 5.33575 7.67521C5.16096 7.67673 4.99375 7.74684 4.87014 7.87045C4.74654 7.99405 4.67642 8.16126 4.6749 8.33606C4.67339 8.51086 4.74058 8.67926 4.86202 8.80499L6.86202 10.805C6.92753 10.8705 7.00595 10.9216 7.0923 10.955C7.17864 10.9885 7.27102 11.0036 7.36353 10.9994C7.45605 10.9952 7.54667 10.9718 7.62963 10.9306C7.71258 10.8895 7.78605 10.8315 7.84535 10.7603L11.1787 6.76033Z" fill="#4CAF50"/>
</svg>
