<svg width="12" height="14" viewBox="0 0 12 14" fill="none" xmlns="http://www.w3.org/2000/svg">
<path d="M9.33333 13.6663H2.66667C2.31304 13.6663 1.97391 13.5259 1.72386 13.2758C1.47381 13.0258 1.33333 12.6866 1.33333 12.333V3.66634H0V2.33301H2.66667V1.66634C2.66667 1.31272 2.80714 0.97358 3.05719 0.723532C3.30724 0.473484 3.64638 0.333008 4 0.333008H8C8.35362 0.333008 8.69276 0.473484 8.94281 0.723532C9.19286 0.97358 9.33333 1.31272 9.33333 1.66634V2.33301H12V3.66634H10.6667V12.333C10.6667 12.6866 10.5262 13.0258 10.2761 13.2758C10.0261 13.5259 9.68696 13.6663 9.33333 13.6663ZM2.66667 3.66634V12.333H9.33333V3.66634H2.66667ZM4 1.66634V2.33301H8V1.66634H4Z" fill="#AF4C4C"/>
</svg>
