<svg width="14" height="16" viewBox="0 0 14 16" fill="none" xmlns="http://www.w3.org/2000/svg">
<path d="M11 0.5C11.2652 0.5 11.5196 0.605357 11.7071 0.792893C11.8946 0.98043 12 1.23478 12 1.5V14.5H13.5C13.6326 14.5 13.7598 14.5527 13.8536 14.6464C13.9473 14.7402 14 14.8674 14 15C14 15.1326 13.9473 15.2598 13.8536 15.3536C13.7598 15.4473 13.6326 15.5 13.5 15.5H0.5C0.367392 15.5 0.240215 15.4473 0.146447 15.3536C0.0526784 15.2598 0 15.1326 0 15C0 14.8674 0.0526784 14.7402 0.146447 14.6464C0.240215 14.5527 0.367392 14.5 0.5 14.5H2V1.5C2 1.23478 2.10536 0.98043 2.29289 0.792893C2.48043 0.605357 2.73478 0.5 3 0.5H11ZM9 9.5C9.26522 9.5 9.51957 9.39464 9.70711 9.20711C9.89464 9.01957 10 8.76522 10 8.5C10 8.23478 9.89464 7.98043 9.70711 7.79289C9.51957 7.60536 9.26522 7.5 9 7.5C8.73478 7.5 8.48043 7.60536 8.29289 7.79289C8.10536 7.98043 8 8.23478 8 8.5C8 8.76522 8.10536 9.01957 8.29289 9.20711C8.48043 9.39464 8.73478 9.5 9 9.5Z" fill="#4CAF50"/>
</svg>
