<svg width="14" height="14" viewBox="0 0 14 14" fill="none" xmlns="http://www.w3.org/2000/svg">
<path d="M7.33333 6.00667V2.5H9.33333V5.16667H10.6667V1.16667H7.33333V0.5H1.33333V11.1667H0V12.5H6.17333C5.62594 11.7186 5.33263 10.7874 5.33333 9.83333C5.33333 8.24667 6.12667 6.85333 7.33333 6.00667ZM4.66667 5.83333H6V7.16667H4.66667V5.83333ZM12.46 9.41333L13.22 8.74667L12.5533 7.59333L11.5867 7.92C11.3733 7.74 11.1333 7.6 10.8667 7.5L10.6667 6.5H9.33333L9.13333 7.49333C8.86667 7.59333 8.62667 7.73333 8.41333 7.91333L7.44667 7.58667L6.78 8.74L7.54 9.40667C7.48667 9.74 7.48667 9.91333 7.54 10.2467L6.78 10.9133L7.44667 12.0667L8.41333 11.74C8.62667 11.92 8.86667 12.06 9.13333 12.16L9.33333 13.1667H10.6667L10.8667 12.1733C11.1333 12.0733 11.3733 11.9333 11.5867 11.7533L12.5533 12.08L13.22 10.9267L12.46 10.26C12.5133 9.92 12.5133 9.74667 12.46 9.41333ZM10 11.1667C9.26667 11.1667 8.66667 10.5667 8.66667 9.83333C8.66667 9.1 9.26667 8.5 10 8.5C10.7333 8.5 11.3333 9.1 11.3333 9.83333C11.3333 10.5667 10.7333 11.1667 10 11.1667Z" fill="white"/>
</svg>
